{"title":"Premier League - Review Show - 22 Jan 2013","uid":8054098,"size":270772371,"categoryP":"video","categoryS":"tv_shows","magnet":"?xt=urn:btih:a6ec0c40e5f4b130e9bd57221f25bf413e3756e6&amp;dn=Premier+League+-+Review+Show+-+22+Jan+2013&amp;tr=udp%3A%2F%2Ftracker.openbittorrent.com%3A80&amp;tr=udp%3A%2F%2Fopen.demonii.com%3A1337&amp;tr=udp%3A%2F%2Ftracker.coppersurfer.tk%3A6969&amp;tr=udp%3A%2F%2Fexodus.desync.com%3A6969","seeders":0,"leechers":1,"uploader":"IAMH67","files":5,"time":1358918439,"description":"A review and highlights of the following games played, English Commentary and Narration.\n\nSunday January 20\n\nTottenham Hotspur v Manchester United\nChelsea v Arsenal\n\nSaturday January 19\n\nWest Bromwich Albion v Aston Villa\nNewcastle United v Reading\nSwansea City v Stoke City\nWigan Athletic v Sunderland\nWest Ham United v Queens Park Rangers\nManchester City v Fulham\nLiverpool v Norwich City\n\n\n\n\nVideo\n\nFormat/Info                      : MP4\nFormat profile                   : &lt;a class=&quot;__cf_email__&quot; href=&quot;/cdn-cgi/l/email-protection&quot; data-cfemail=&quot;da92b3bdb29a96e9f4ea&quot;&gt;[email&amp;#160;protected]&lt;/a&gt;&lt;script cf-hash='f9e31' type=&quot;text/javascript&quot;&gt;\n/* &lt;![CDATA[ */!function(){try{var t=&quot;currentScript&quot;in document?document.currentScript:function(){for(var t=document.getElementsByTagName(&quot;script&quot;),e=t.length;e--;)if(t[e].getAttribute(&quot;cf-hash&quot;))return t[e]}();if(t&amp;&amp;t.previousSibling){var e,r,n,i,c=t.previousSibling,a=c.getAttribute(&quot;data-cfemail&quot;);if(a){for(e=&quot;&quot;,r=parseInt(a.substr(0,2),16),n=2;a.length-n;n+=2)i=parseInt(a.substr(n,2),16)^r,e+=String.fromCharCode(i);e=document.createTextNode(e),c.parentNode.replaceChild(e,c)}}}catch(u){}}();/* ]]&gt; */&lt;/script&gt;\nFormat settings, CABAC           : Yes\nFormat settings, ReFrames        : 4 frames\nCodec ID                         : avc1\nCodec ID/Info                    : Advanced Video Coding\nDuration                         : 51mn 25s\nBit rate mode                    : Variable\nBit rate                         : 632 Kbps\nMaximum bit rate                 : 2 329 Kbps\nWidth                            : 640 pixels\nHeight                           : 364 pixels\nDisplay aspect ratio             : 16:9\nFrame rate mode                  : Constant\nFrame rate                       : 25.000 fps\nResolution                       : 8 bits\nColorimetry                      : 4:2:0\nScan type                        : Progressive\nBits/(Pixel*Frame)               : 0.108\nStream size                      : 232 MiB (90%)\n\n\nAudio\n\nFormat                           : AAC\nFormat/Info                      : Advanced Audio Codec\nFormat version                   : Version 4\nFormat profile                   : LC\nFormat settings, SBR             : No\nFormat settings, PS              : Yes\nCodec ID                         : 40\nDuration                         : 51mn 26s\nBit rate mode                    : Variable\nBit rate                         : 64.0 Kbps\nMaximum bit rate                 : 79.6 Kbps\nChannel(s)                       : 2 channels\nChannel positions                : Front: L R\nSampling rate                    : 48.0 KHz\nStream size                      : 23.5 MiB (9%)\n\nScreens (Please check before Download) :\n &lt;a href=&quot;\nhttp://i.imgur.com/zbtgD7A.jpg&quot; rel=&quot;nofollow&quot; target=&quot;_NEW&quot;&gt;\nhttp://i.imgur.com/zbtgD7A.jpg&lt;/a&gt;\n &lt;a href=&quot;\nhttp://i.imgur.com/V370nCE.jpg&quot; rel=&quot;nofollow&quot; target=&quot;_NEW&quot;&gt;\nhttp://i.imgur.com/V370nCE.jpg&lt;/a&gt;\n &lt;a href=&quot;\nhttp://i.imgur.com/9AACpWK.jpg&quot; rel=&quot;nofollow&quot; target=&quot;_NEW&quot;&gt;\nhttp://i.imgur.com/9AACpWK.jpg&lt;/a&gt;","torrent":{"xt":"urn:btih:a6ec0c40e5f4b130e9bd57221f25bf413e3756e6","amp;dn":"Premier+League+-+Review+Show+-+22+Jan+2013","amp;tr":["udp%3A%2F%2Ftracker.openbittorrent.com%3A80","udp%3A%2F%2Fopen.demonii.com%3A1337","udp%3A%2F%2Ftracker.coppersurfer.tk%3A6969","udp%3A%2F%2Fexodus.desync.com%3A6969"],"infoHash":"a6ec0c40e5f4b130e9bd57221f25bf413e3756e6","infoHashBuffer":{"type":"Buffer","data":[166,236,12,64,229,244,177,48,233,189,87,34,31,37,191,65,62,55,86,230]},"announce":[],"urlList":[]}}